<svg xmlns="http://www.w3.org/2000/svg" version="1.1" xmlns:xlink="http://www.w3.org/1999/xlink" xmlns:svgjs="http://svgjs.dev/svgjs" width="1920" height="1080" preserveAspectRatio="none" viewBox="0 0 1920 1080"><g mask="url(&quot;#SvgjsMask1012&quot;)" fill="none"><path d="M1086.01 1261.14C1270.68 1196.49 1315.01 655.1 1574.66 649.78 1834.32 644.46 1925.26 901.12 2063.32 908.98" stroke="rgba(207, 27, 43, 0.24)" stroke-width="2"></path><path d="M692 1249.16C944.46 1199.41 1064.44 555.47 1451.12 554.1 1837.79 552.73 1996.1 941.74 2210.23 953.7" stroke="rgba(207, 27, 43, 0.24)" stroke-width="2"></path><path d="M351.4 1081.91C643.26 1023.92 781.78 277.77 1227.6 276.33 1673.42 274.89 1855.06 736.56 2103.8 751.53" stroke="rgba(207, 27, 43, 0.24)" stroke-width="2"></path><path d="M870.92 1267.7C1070.63 1203.83 1133.88 628.04 1411.38 626.37 1688.87 624.7 1786.53 995.68 1951.83 1015.17" stroke="rgba(207, 27, 43, 0.24)" stroke-width="2"></path><path d="M664.05 1131.93C868.2 1129.38 1018.97 911.25 1445.95 896.18 1872.94 881.11 2002.44 458.61 2227.86 442.58" stroke="rgba(207, 27, 43, 0.24)" stroke-width="2"></path></g><defs><mask id="SvgjsMask1012"><rect width="1920" height="1080" fill="#ffffff"></rect></mask></defs></svg>